<svg xmlns="http://www.w3.org/2000/svg" width="150.548" height="98.547" viewBox="0 0 150.548 98.547">
    <defs>
        <style>
            .cls-1{fill:#f0f0f0;stroke:#1f2431;stroke-width:3px}
        </style>
    </defs>
    <g id="Group_26331" transform="translate(-128.5 -32.023)">
        <g id="surface1" transform="translate(130 70)">
            <path id="Path_28247" d="M249.836 86.891H240v4.919h9.836zm0 0" class="cls-1" transform="translate(-163.766 -64.759)"/>
            <path id="Path_28248" d="M2.11 15.271l16.7-2.385a84.3 84.3 0 0 1 9.471-5.016A82.813 82.813 0 0 1 62.541.492h2.9a83.59 83.59 0 0 1 39.916 10.178l8.43 4.6a58.106 58.106 0 0 1 28.12 7.623 11.227 11.227 0 0 1 5.641 9.721v14.6a2.459 2.459 0 0 1-2.46 2.459h-8.257a14.7 14.7 0 0 1-27.746 0h-65.7a14.7 14.7 0 0 1-27.746 0h-.882a2.47 2.47 0 0 1-.915-.175L5.876 46.3A9.3 9.3 0 0 1 0 37.625V17.706a2.461 2.461 0 0 1 2.11-2.435zm111.21 31.453a9.838 9.838 0 1 0-.2-1.967 9.836 9.836 0 0 0 .2 1.967zm-44.464-1.967H108.2a14.755 14.755 0 1 1 29.509 0h4.918V32.613a6.291 6.291 0 0 0-3.165-5.452 53.168 53.168 0 0 0-26.344-7H68.856zm0-29.509h34.619l-.475-.26a78.63 78.63 0 0 0-34.145-9.47zM63.938 5.41h-1.392a77.831 77.831 0 0 0-28.935 5.543l4.289 4.294h26.038zM19.872 46.724a9.838 9.838 0 1 0-.2-1.967 9.837 9.837 0 0 0 .2 1.967zm-14.954-24.1H12.3v4.919H4.918v10.082A4.4 4.4 0 0 0 7.7 41.734l7.054 2.833c0-.226.029-.45.044-.677s.02-.491.044-.737.074-.492.113-.737.069-.492.118-.715.121-.472.185-.706.113-.469.187-.7.162-.447.245-.671.16-.454.246-.677.2-.422.305-.631.2-.438.319-.649.246-.391.357-.587.245-.421.385-.622.271-.361.406-.543.288-.4.445-.586.3-.337.457-.492.322-.363.491-.535.337-.308.506-.46.352-.332.539-.492.376-.282.562-.422.374-.29.57-.421.418-.245.629-.383.384-.246.583-.351.447-.217.673-.325.4-.2.612-.292.492-.182.737-.27.406-.158.615-.224c.28-.086.567-.148.854-.219.187-.044.366-.1.555-.142.3-.062.612-.1.92-.141.182-.024.356-.064.538-.081A14.947 14.947 0 0 1 29.5 30a14.769 14.769 0 0 1 14.757 14.753h19.68V20.164h-27.05a2.455 2.455 0 0 1-1.738-.72l-6.377-6.377a78.856 78.856 0 0 0-7.8 4.265 2.468 2.468 0 0 1-.954.349l-15.1 2.156zm0 0" class="cls-1" transform="translate(0 -0.492)"/>
        </g>
        <path id="spanner" fill="#f0f0f0" d="M7.654 36.737a1.671 1.671 0 0 1-1.575-1.049 1.734 1.734 0 0 1 .377-1.9l2.633-2.633a.786.786 0 0 0 0-1.091l-2.42-2.415a.8.8 0 0 0-1.091 0l-2.633 2.633a1.736 1.736 0 0 1-1.9.375A1.662 1.662 0 0 1 0 29.1a7.649 7.649 0 0 1 7.859-7.67 7.918 7.918 0 0 1 .866.08L21.51 8.725a7.883 7.883 0 0 1-.08-.859A7.649 7.649 0 0 1 29.084 0a1.671 1.671 0 0 1 1.575 1.049 1.734 1.734 0 0 1-.377 1.9l-2.633 2.629a.786.786 0 0 0 0 1.091l2.419 2.419a.8.8 0 0 0 1.091 0l2.633-2.633a1.737 1.737 0 0 1 1.9-.375 1.662 1.662 0 0 1 1.047 1.558 7.651 7.651 0 0 1-7.859 7.669 7.918 7.918 0 0 1-.866-.08L15.228 28.012a8.353 8.353 0 0 1 .08.86 7.647 7.647 0 0 1-7.654 7.865zM6.123 25.9a2.281 2.281 0 0 1 1.627.672l2.419 2.419a2.306 2.306 0 0 1 0 3.256l-2.633 2.627a.2.2 0 0 0-.044.228.147.147 0 0 0 .147.1 6.117 6.117 0 0 0 6.138-6.285 6.279 6.279 0 0 0-.121-1.013.766.766 0 0 1 .208-.7l13.347-13.34a.76.76 0 0 1 .7-.208 6.291 6.291 0 0 0 1.021.122 6.117 6.117 0 0 0 6.277-6.124.151.151 0 0 0-.1-.161.2.2 0 0 0-.23.044l-2.636 2.633a2.364 2.364 0 0 1-3.256 0l-2.418-2.418a2.306 2.306 0 0 1 0-3.256L29.2 1.863a.2.2 0 0 0 .044-.228.147.147 0 0 0-.147-.1 6.117 6.117 0 0 0-6.138 6.285 6.279 6.279 0 0 0 .121 1.013.766.766 0 0 1-.208.7L9.526 22.873a.782.782 0 0 1-.7.208 6.089 6.089 0 0 0-1.019-.121 6.016 6.016 0 0 0-4.425 1.728 6.085 6.085 0 0 0-1.854 4.395.151.151 0 0 0 .1.161.209.209 0 0 0 .23-.044l2.633-2.633a2.287 2.287 0 0 1 1.632-.667z" transform="translate(196.127 32.023) rotate(45)"/>
        <path id="Path_28255" fill="none" stroke="#f0f0f0" stroke-linecap="round" stroke-width="2px" d="M8473.253 147.486l-2.439-6.191h-15.427l-2.387-5.648" transform="translate(-8267 -37)"/>
    </g>
</svg>
