<svg xmlns="http://www.w3.org/2000/svg" width="26.13" height="26.13" viewBox="0 0 26.13 26.13">
    <path fill="#fbbb00" d="M5.791 147l-.91 3.4-3.324.07a13.088 13.088 0 0 1-.1-12.2l2.96.543 1.3 2.942A7.8 7.8 0 0 0 5.791 147z" transform="translate(0 -131.211)"/>
    <path fill="#518ef8" d="M274.177 208.176a13.06 13.06 0 0 1-4.657 12.629l-3.728-.19-.528-3.294a7.786 7.786 0 0 0 3.35-3.976h-6.986v-5.169h12.549z" transform="translate(-248.276 -197.552)"/>
    <path fill="#28b446" d="M50.2 316.871a13.069 13.069 0 0 1-19.687-4l4.234-3.466a7.77 7.77 0 0 0 11.2 3.978z" transform="translate(-28.952 -293.618)"/>
    <path fill="#f14336" d="M48.567 3.008l-4.232 3.465a7.769 7.769 0 0 0-11.454 4.068l-4.256-3.485a13.068 13.068 0 0 1 19.942-4.048z" transform="translate(-27.163)"/>
</svg>
